# Blender v2.75 (sub 0) OBJ File: '102-Tent.blend'
# www.blender.org
o Circle.001
v 0.154013 5.742612 0.000000
v -0.000000 5.742612 0.154013
v -0.000000 5.742612 -0.154013
v -0.119721 5.347568 -0.119721
v 0.108904 5.742612 -0.108904
v 0.108904 5.742612 0.108904
v -0.108904 5.742612 0.108904
v 0.000000 5.347568 -0.169311
v -0.154013 5.742612 0.000000
v 0.169311 5.347568 0.000000
v -0.000000 5.347568 0.169311
v -0.169311 5.347568 0.000000
v 0.119721 5.347568 -0.119721
v 0.119721 5.347568 0.119721
v -0.119721 5.347568 0.119721
v -0.000000 5.801611 0.000000
v -0.152933 5.617043 -0.152933
v -0.157041 5.483489 -0.157041
v -0.216280 5.617043 0.000000
v -0.222090 5.483489 0.000000
v -0.152933 5.617043 0.152933
v -0.157041 5.483489 0.157041
v -0.000000 5.617043 0.216280
v -0.000000 5.483489 0.222089
v 0.152933 5.617043 0.152933
v 0.157041 5.483489 0.157041
v 0.216280 5.617043 0.000000
v 0.222089 5.483489 0.000000
v 0.152933 5.617043 -0.152933
v 0.157041 5.483489 -0.157041
v 0.000000 5.617043 -0.216280
v 0.000000 5.483489 -0.222089
v -0.108904 5.742612 -0.108904
v -0.080184 5.301611 -0.122744
v -0.143492 5.301611 -0.030094
v -0.122744 5.301611 0.080184
v -0.030094 5.301611 0.143492
v 0.080184 5.301611 0.122744
v 0.143492 5.301611 0.030094
v 0.122744 5.301611 -0.080184
v 0.030094 5.301611 -0.143492
v -0.067006 5.786861 -0.067006
v -0.094760 5.786861 0.000000
v -0.067006 5.786861 0.067006
v -0.000000 5.786861 0.094760
v 0.067006 5.786861 0.067006
v 0.094760 5.786861 0.000000
v 0.067006 5.786861 -0.067006
v -0.000000 5.786861 -0.094760
v -0.200443 5.617043 -0.083026
v -0.134583 5.681720 -0.134583
v -0.083026 5.617043 -0.200443
v -0.161303 5.550369 -0.161303
v -0.205827 5.483489 -0.085256
v -0.085256 5.483489 -0.205827
v -0.142422 5.416016 -0.142422
v -0.200443 5.617043 0.083026
v -0.190329 5.681720 0.000000
v -0.228116 5.550369 0.000000
v -0.205827 5.483489 0.085256
v -0.201416 5.416016 0.000000
v -0.083026 5.617043 0.200443
v -0.134583 5.681720 0.134583
v -0.161303 5.550369 0.161303
v -0.085257 5.483489 0.205827
v -0.142422 5.416016 0.142422
v 0.083026 5.617043 0.200443
v -0.000000 5.681720 0.190329
v -0.000000 5.550369 0.228116
v 0.085256 5.483489 0.205827
v -0.000000 5.416016 0.201415
v 0.200443 5.617043 0.083026
v 0.134583 5.681720 0.134583
v 0.161303 5.550369 0.161303
v 0.205827 5.483489 0.085256
v 0.142422 5.416016 0.142422
v 0.200443 5.617043 -0.083026
v 0.190329 5.681720 0.000000
v 0.228116 5.550369 0.000000
v 0.205827 5.483489 -0.085256
v 0.201415 5.416016 0.000000
v 0.083026 5.617043 -0.200443
v 0.134583 5.681720 -0.134583
v 0.161303 5.550369 -0.161303
v 0.085256 5.483489 -0.205827
v 0.142422 5.416016 -0.142422
v 0.000000 5.681720 -0.190329
v 0.000000 5.550369 -0.228116
v 0.000000 5.416016 -0.201415
v -0.059123 5.742612 -0.142736
v -0.142736 5.742612 -0.059123
v 0.066427 5.353312 -0.160368
v -0.066427 5.353312 -0.160368
v -0.160368 5.353312 -0.066426
v 0.059123 5.742612 -0.142736
v -0.142736 5.742612 0.059123
v -0.160368 5.353312 0.066427
v -0.059123 5.742612 0.142736
v -0.066427 5.353312 0.160368
v 0.059123 5.742612 0.142736
v 0.066426 5.353312 0.160368
v 0.142736 5.742612 0.059123
v 0.160368 5.353312 0.066427
v 0.142736 5.742612 -0.059123
v 0.160368 5.353312 -0.066426
v -0.122744 5.301611 -0.080184
v -0.143492 5.301611 0.030094
v -0.080184 5.301611 0.122744
v 0.030094 5.301611 0.143492
v 0.122744 5.301611 0.080184
v 0.143492 5.301611 -0.030094
v 0.080184 5.301611 -0.122744
v -0.030094 5.301611 -0.143492
v -0.057664 5.301611 -0.139213
v -0.139213 5.301611 -0.057664
v -0.139213 5.301611 0.057664
v -0.057664 5.301611 0.139213
v 0.057664 5.301611 0.139213
v 0.139213 5.301611 0.057664
v 0.139213 5.301611 -0.057664
v 0.057664 5.301611 -0.139213
v -0.043957 5.775389 -0.106121
v -0.106121 5.775389 -0.043957
v -0.106121 5.775389 0.043957
v -0.043957 5.775389 0.106121
v 0.043957 5.775389 0.106121
v 0.106121 5.775389 0.043957
v 0.106121 5.775389 -0.043957
v 0.043957 5.775389 -0.106121
v -0.073064 5.681720 -0.176392
v -0.077678 5.417452 -0.187531
v -0.087570 5.550370 -0.211413
v -0.187531 5.417452 -0.077678
v -0.176392 5.681720 -0.073064
v -0.211413 5.550370 -0.087570
v -0.187531 5.417452 0.077678
v -0.176392 5.681720 0.073064
v -0.211413 5.550370 0.087570
v -0.077678 5.417452 0.187531
v -0.073064 5.681720 0.176392
v -0.087570 5.550370 0.211413
v 0.077678 5.417452 0.187531
v 0.073064 5.681720 0.176392
v 0.087570 5.550370 0.211413
v 0.187531 5.417452 0.077678
v 0.176392 5.681720 0.073064
v 0.211413 5.550370 0.087570
v 0.187531 5.417452 -0.077678
v 0.176392 5.681720 -0.073064
v 0.211413 5.550370 -0.087570
v 0.077678 5.417452 -0.187531
v 0.073064 5.681720 -0.176392
v 0.087570 5.550370 -0.211413
v -0.100822 5.301611 -0.100822
v -0.142584 5.301611 0.000000
v -0.100822 5.301611 0.100822
v -0.000000 5.301611 0.142584
v 0.100822 5.301611 0.100822
v 0.142584 5.301611 0.000000
v 0.100822 5.301611 -0.100822
v -0.000000 5.301611 -0.142584
vt 0.869994 0.601053
vt 0.879142 0.571045
vt 0.915432 0.604555
vt 0.940095 0.653860
vt 0.918009 0.666290
vt 0.898581 0.627450
vt 0.896983 0.678123
vt 0.874520 0.660140
vt 0.861284 0.629621
vt 0.085390 0.333274
vt 0.088294 0.294815
vt 0.133783 0.331365
vt 0.169334 0.384493
vt 0.142200 0.396140
vt 0.113795 0.364707
vt 0.115505 0.419434
vt 0.094754 0.396471
vt 0.074002 0.373507
vt 0.559873 0.396140
vt 0.532739 0.384493
vt 0.568290 0.331365
vt 0.613779 0.294815
vt 0.616683 0.333274
vt 0.588278 0.364707
vt 0.628070 0.373507
vt 0.607319 0.396471
vt 0.586568 0.419434
vt 0.085140 0.882319
vt 0.051684 0.858201
vt 0.055747 0.840596
vt 0.088465 0.838237
vt 0.059941 0.823492
vt 0.064396 0.807390
vt 0.067743 0.789819
vt 0.099811 0.796655
vt 0.139780 0.805434
vt 0.129842 0.855949
vt 0.119542 0.903325
vt 0.948316 0.712419
vt 0.948316 0.775605
vt 0.924485 0.762193
vt 0.924485 0.712419
vt 0.901881 0.758563
vt 0.890459 0.712419
vt 0.799407 0.592254
vt 0.789536 0.559876
vt 0.836042 0.559876
vt 0.836042 0.592254
vt 0.836041 0.638485
vt 0.802079 0.622966
vt 0.754074 0.758549
vt 0.731988 0.770978
vt 0.723767 0.712419
vt 0.723767 0.649234
vt 0.747598 0.662645
vt 0.747598 0.712419
vt 0.770202 0.666276
vt 0.781624 0.712419
vt 0.775100 0.746716
vt 0.419234 0.172900
vt 0.402720 0.129534
vt 0.416027 0.114549
vt 0.447254 0.129460
vt 0.429380 0.099643
vt 0.442826 0.084893
vt 0.456320 0.070221
vt 0.484235 0.100969
vt 0.512066 0.133616
vt 0.473480 0.173208
vt 0.437134 0.216537
vt 0.802089 0.823786
vt 0.792941 0.853793
vt 0.756651 0.820284
vt 0.773502 0.797389
vt 0.797563 0.764699
vt 0.810799 0.795218
vt 0.572272 0.693000
vt 0.604341 0.699836
vt 0.603471 0.721347
vt 0.573541 0.744828
vt 0.603656 0.744827
vt 0.603471 0.768308
vt 0.604341 0.789819
vt 0.572272 0.796655
vt 0.532303 0.805434
vt 0.530253 0.744828
vt 0.532303 0.684221
vt 0.217838 0.100969
vt 0.245754 0.070221
vt 0.259247 0.084893
vt 0.254819 0.129461
vt 0.272694 0.099643
vt 0.286047 0.114550
vt 0.299353 0.129534
vt 0.282839 0.172900
vt 0.264940 0.216537
vt 0.228594 0.173208
vt 0.190007 0.133616
vt 0.068612 0.768308
vt 0.098543 0.744828
vt 0.068427 0.744828
vt 0.068612 0.721347
vt 0.067743 0.699836
vt 0.099811 0.693000
vt 0.139780 0.684221
vt 0.141830 0.744828
vt 0.607687 0.807390
vt 0.583618 0.838237
vt 0.612142 0.823492
vt 0.616336 0.840596
vt 0.620399 0.858201
vt 0.586943 0.882319
vt 0.552541 0.903325
vt 0.542241 0.855949
vt 0.586943 0.607336
vt 0.620399 0.631454
vt 0.616336 0.649059
vt 0.583618 0.651418
vt 0.612142 0.666163
vt 0.607687 0.682265
vt 0.542241 0.633706
vt 0.552541 0.586330
vt 0.064396 0.682265
vt 0.088465 0.651418
vt 0.059941 0.666163
vt 0.055747 0.649059
vt 0.051684 0.631454
vt 0.085140 0.607336
vt 0.119542 0.586330
vt 0.129842 0.633706
vt 0.836041 0.786354
vt 0.790353 0.650345
vt 0.881730 0.774494
vt 0.870004 0.801873
vt 0.611241 0.214067
vt 0.636183 0.177410
vt 0.650389 0.226766
vt 0.627842 0.259904
vt 0.582562 0.252595
vt 0.567243 0.188777
vt 0.594640 0.168230
vt 0.621977 0.128053
vt 0.178967 0.811347
vt 0.225646 0.833302
vt 0.207180 0.875608
vt 0.193071 0.929779
vt 0.155834 0.918108
vt 0.169053 0.867355
vt 0.252824 0.744828
vt 0.252824 0.674930
vt 0.284358 0.681642
vt 0.284358 0.744828
vt 0.284358 0.808013
vt 0.252824 0.814725
vt 0.219419 0.744828
vt 0.225646 0.656353
vt 0.178967 0.678308
vt 0.182272 0.744828
vt 0.090832 0.214067
vt 0.119511 0.252595
vt 0.074231 0.259904
vt 0.051684 0.226766
vt 0.065890 0.177410
vt 0.080096 0.128053
vt 0.107433 0.168230
vt 0.134830 0.188776
vt 0.155834 0.571547
vt 0.193071 0.559876
vt 0.207180 0.614047
vt 0.169053 0.622300
vt 0.155663 0.294865
vt 0.193448 0.334414
vt 0.178988 0.255957
vt 0.236347 0.301116
vt 0.244268 0.260717
vt 0.162346 0.170062
vt 0.203307 0.215389
vt 0.227022 0.364776
vt 0.258492 0.390544
vt 0.225791 0.419434
vt 0.197343 0.396140
vt 0.256701 0.333411
vt 0.291193 0.361653
vt 0.493116 0.678308
vt 0.446438 0.656353
vt 0.464903 0.614047
vt 0.479012 0.559876
vt 0.516249 0.571547
vt 0.503030 0.622300
vt 0.419259 0.744828
vt 0.419259 0.814725
vt 0.387725 0.808013
vt 0.387725 0.744828
vt 0.387725 0.681642
vt 0.419259 0.674930
vt 0.452665 0.744827
vt 0.446438 0.833302
vt 0.493116 0.811347
vt 0.489812 0.744827
vt 0.475051 0.364775
vt 0.508626 0.334414
vt 0.504730 0.396140
vt 0.476282 0.419434
vt 0.443581 0.390544
vt 0.410880 0.361653
vt 0.445372 0.333410
vt 0.465726 0.301116
vt 0.516249 0.918108
vt 0.479012 0.929779
vt 0.464903 0.875608
vt 0.503030 0.867355
vt 0.546410 0.294865
vt 0.523086 0.255957
vt 0.539727 0.170062
vt 0.457806 0.260717
vt 0.498766 0.215389
vt 0.872676 0.832585
vt 0.882547 0.864963
vt 0.836042 0.864963
vt 0.836041 0.832585
vt 0.836042 0.712419
vn 0.709300 0.640800 0.293800
vn 0.829300 0.440700 0.343500
vn 0.898000 0.440000 0.000000
vn 0.829300 0.440700 -0.343500
vn 0.709300 0.640800 -0.293800
vn 0.761000 0.648700 0.000000
vn 0.505300 0.837200 -0.209300
vn 0.384700 0.923000 0.000000
vn 0.505300 0.837200 0.209300
vn -0.293800 0.640800 0.709300
vn -0.343500 0.440700 0.829300
vn 0.000000 0.440000 0.898000
vn 0.343500 0.440800 0.829300
vn 0.293800 0.640800 0.709300
vn 0.000000 0.648700 0.761000
vn 0.209300 0.837200 0.505300
vn 0.000000 0.923000 0.384700
vn -0.209300 0.837200 0.505300
vn 0.293800 0.640800 -0.709300
vn 0.343500 0.440800 -0.829300
vn 0.000000 0.440000 -0.898000
vn -0.343500 0.440700 -0.829300
vn -0.293800 0.640800 -0.709300
vn 0.000000 0.648700 -0.761000
vn -0.209300 0.837200 -0.505300
vn 0.000000 0.923000 -0.384700
vn 0.209300 0.837200 -0.505300
vn -0.347800 -0.416800 -0.839800
vn -0.349900 -0.404900 -0.844700
vn -0.568400 -0.435900 -0.697800
vn -0.637500 -0.432700 -0.637500
vn -0.611200 -0.502700 -0.611200
vn -0.697800 -0.435900 -0.568400
vn -0.844700 -0.404900 -0.349900
vn -0.839800 -0.416800 -0.347800
vn -0.865200 -0.350600 -0.358400
vn -0.660900 -0.355400 -0.660900
vn -0.358400 -0.350600 -0.865200
vn 0.635000 0.440000 -0.635000
vn 0.538100 0.648700 -0.538100
vn 0.272000 0.923000 -0.272000
vn 0.635000 0.440000 0.635000
vn 0.538100 0.648700 0.538100
vn 0.272000 0.923000 0.272000
vn -0.709300 0.640800 0.293800
vn -0.829300 0.440700 0.343500
vn -0.635000 0.440000 0.635000
vn -0.538100 0.648700 0.538100
vn -0.272000 0.923000 0.272000
vn -0.505300 0.837200 0.209300
vn 0.347800 -0.416800 -0.839800
vn 0.349900 -0.404900 -0.844700
vn 0.091500 -0.435900 -0.895300
vn 0.000000 -0.432700 -0.901500
vn 0.000000 -0.502700 -0.864400
vn -0.091500 -0.435900 -0.895300
vn 0.000000 -0.355400 -0.934700
vn 0.358400 -0.350600 -0.865200
vn -0.709300 0.640800 -0.293800
vn -0.829300 0.440700 -0.343500
vn -0.898000 0.440000 0.000000
vn -0.761000 0.648700 0.000000
vn -0.384700 0.923000 0.000000
vn -0.505300 0.837200 -0.209300
vn 0.839800 -0.416800 0.347800
vn 0.844700 -0.404900 0.349900
vn 0.895300 -0.435900 0.091500
vn 0.901500 -0.432700 0.000000
vn 0.864400 -0.502700 0.000000
vn 0.895300 -0.435900 -0.091400
vn 0.844700 -0.404900 -0.349900
vn 0.839800 -0.416800 -0.347800
vn 0.865200 -0.350600 -0.358400
vn 0.934700 -0.355400 0.000000
vn 0.865200 -0.350600 0.358400
vn -0.347800 -0.416800 0.839800
vn -0.349900 -0.404900 0.844700
vn -0.091500 -0.435900 0.895300
vn 0.000000 -0.432700 0.901500
vn 0.000000 -0.502700 0.864400
vn 0.091500 -0.435900 0.895300
vn 0.349900 -0.404900 0.844700
vn 0.347800 -0.416800 0.839800
vn 0.358400 -0.350600 0.865200
vn 0.000000 -0.355400 0.934700
vn -0.358400 -0.350600 0.865200
vn -0.895300 -0.435900 -0.091500
vn -0.901500 -0.432700 0.000000
vn -0.864400 -0.502700 0.000000
vn -0.895300 -0.435900 0.091500
vn -0.844700 -0.404900 0.349900
vn -0.839800 -0.416800 0.347800
vn -0.865200 -0.350600 0.358400
vn -0.934700 -0.355400 0.000000
vn 0.697800 -0.435900 -0.568400
vn 0.637500 -0.432700 -0.637500
vn 0.611200 -0.502700 -0.611200
vn 0.568400 -0.435900 -0.697800
vn 0.660900 -0.355400 -0.660900
vn 0.568400 -0.435900 0.697800
vn 0.637500 -0.432700 0.637500
vn 0.611200 -0.502700 0.611200
vn 0.697800 -0.435900 0.568400
vn 0.660900 -0.355400 0.660900
vn -0.697800 -0.435900 0.568400
vn -0.637500 -0.432700 0.637500
vn -0.611200 -0.502700 0.611200
vn -0.568400 -0.435900 0.697800
vn -0.660900 -0.355400 0.660900
vn -0.272000 0.923000 -0.272000
vn -0.680500 0.271800 -0.680500
vn -0.888900 0.272300 -0.368200
vn -0.635000 0.440000 -0.635000
vn -0.368200 0.272300 -0.888900
vn -0.382300 0.042300 -0.923000
vn -0.706500 0.042200 -0.706500
vn -0.923000 0.042300 -0.382300
vn -0.907500 -0.187200 -0.375900
vn -0.375900 -0.187200 -0.907500
vn -0.694400 -0.188600 -0.694400
vn -0.962300 0.271800 0.000000
vn -0.888900 0.272300 0.368200
vn -0.999100 0.042200 0.000000
vn -0.923000 0.042300 0.382300
vn -0.907500 -0.187200 0.375900
vn -0.982000 -0.188600 0.000000
vn -0.680500 0.271800 0.680500
vn -0.368200 0.272300 0.888900
vn -0.706500 0.042200 0.706500
vn -0.382300 0.042300 0.923000
vn -0.375900 -0.187200 0.907500
vn -0.694400 -0.188600 0.694400
vn 0.000000 0.271800 0.962300
vn 0.368200 0.272300 0.888900
vn 0.000000 0.042200 0.999100
vn 0.382300 0.042300 0.923000
vn 0.375900 -0.187200 0.907500
vn 0.000000 -0.188600 0.982000
vn 0.680500 0.271800 0.680500
vn 0.888900 0.272300 0.368200
vn 0.706500 0.042200 0.706500
vn 0.923000 0.042300 0.382300
vn 0.907500 -0.187200 0.375900
vn 0.694400 -0.188600 0.694400
vn 0.962300 0.271800 0.000000
vn 0.888900 0.272300 -0.368200
vn 0.999100 0.042200 0.000000
vn 0.923000 0.042300 -0.382300
vn 0.907500 -0.187200 -0.375900
vn 0.982000 -0.188600 0.000000
vn 0.680500 0.271800 -0.680500
vn 0.368200 0.272300 -0.888900
vn 0.706500 0.042200 -0.706500
vn 0.382300 0.042300 -0.923000
vn 0.375900 -0.187200 -0.907500
vn 0.694400 -0.188600 -0.694400
vn 0.000000 0.271800 -0.962300
vn 0.000000 0.042200 -0.999100
vn 0.000000 -0.188600 -0.982000
vn -0.538100 0.648700 -0.538100
vn 0.000000 1.000000 0.000000
s 1
f 102/1/1 146/2/2 78/3/3
f 78/3/3 149/4/4 104/5/5
f 1/6/6 104/5/5 128/7/7
f 1/6/6 47/8/8 127/9/9
f 98/10/10 140/11/11 68/12/12
f 68/12/12 143/13/13 100/14/14
f 2/15/15 100/14/14 126/16/16
f 2/15/15 45/17/17 125/18/18
f 95/19/19 152/20/20 87/21/21
f 87/21/21 130/22/22 90/23/23
f 3/24/24 90/23/23 122/25/25
f 3/24/24 49/26/26 129/27/27
f 93/28/28 114/29/29 34/30/30
f 4/31/31 34/30/30 154/32/32
f 106/33/33 115/34/34 94/35/35
f 94/35/35 133/36/36 56/37/37
f 56/37/37 131/38/38 93/28/28
f 104/5/5 149/4/4 83/39/39
f 83/39/39 152/40/20 95/41/19
f 5/42/40 95/41/19 129/43/27
f 5/42/40 48/44/41 128/7/7
f 100/45/14 143/46/13 73/47/42
f 73/47/42 146/2/2 102/1/1
f 6/48/43 102/1/1 127/9/9
f 6/48/43 46/49/44 126/50/16
f 96/51/45 137/52/46 63/53/47
f 63/53/47 140/54/11 98/55/10
f 7/56/48 98/55/10 125/57/18
f 7/56/48 44/58/49 124/59/50
f 92/60/51 121/61/52 41/62/53
f 8/63/54 41/62/53 161/64/55
f 113/65/56 114/66/29 93/67/28
f 93/67/28 131/68/38 89/69/57
f 89/69/57 151/70/58 92/60/51
f 91/71/59 134/72/60 58/73/61
f 58/73/61 137/52/46 96/51/45
f 9/74/62 96/51/45 124/59/50
f 9/74/62 43/75/63 123/76/64
f 103/77/65 119/78/66 39/79/67
f 10/80/68 39/79/67 159/81/69
f 111/82/70 120/83/71 105/84/72
f 105/84/72 148/85/73 81/86/74
f 81/86/74 145/87/75 103/77/65
f 99/88/76 117/89/77 37/90/78
f 11/91/79 37/90/78 157/92/80
f 109/93/81 118/94/82 101/95/83
f 101/95/83 142/96/84 71/97/85
f 71/97/85 139/98/86 99/88/76
f 94/35/35 115/34/34 35/99/87
f 12/100/88 35/99/87 155/101/89
f 107/102/90 116/103/91 97/104/92
f 97/104/92 136/105/93 61/106/94
f 61/106/94 133/36/36 94/35/35
f 105/84/72 120/83/71 40/107/95
f 13/108/96 40/107/95 160/109/97
f 112/110/98 121/111/52 92/112/51
f 92/112/51 151/113/58 86/114/99
f 86/114/99 148/85/73 105/84/72
f 101/115/83 118/116/82 38/117/100
f 14/118/101 38/117/100 158/119/102
f 110/120/103 119/78/66 103/77/65
f 103/77/65 145/87/75 76/121/104
f 76/121/104 142/122/84 101/115/83
f 97/104/92 116/103/91 36/123/105
f 15/124/106 36/123/105 156/125/107
f 108/126/108 117/127/77 99/128/76
f 99/128/76 139/129/86 66/130/109
f 66/130/109 136/105/93 97/104/92
f 42/131/110 123/76/64 43/75/63
f 43/75/63 124/59/50 44/58/49
f 44/58/49 125/57/18 45/132/17
f 45/132/17 126/50/16 46/49/44
f 46/49/44 127/9/9 47/8/8
f 47/8/8 128/7/7 48/44/41
f 48/44/41 129/43/27 49/133/26
f 49/133/26 122/134/25 42/131/110
f 17/135/111 50/136/112 134/137/60
f 17/135/111 51/138/113 130/22/22
f 52/139/114 132/140/115 53/141/116
f 53/141/116 135/142/117 50/136/112
f 54/143/118 135/144/117 53/145/116
f 53/145/116 132/146/115 55/147/119
f 18/148/120 55/147/119 131/38/38
f 18/148/120 56/37/37 133/36/36
f 19/149/121 57/150/122 137/151/46
f 19/149/121 58/152/61 134/153/60
f 50/154/112 135/144/117 59/155/123
f 59/155/123 138/156/124 57/150/122
f 60/157/125 138/156/124 59/155/123
f 59/155/123 135/144/117 54/143/118
f 20/158/126 54/143/118 133/36/36
f 20/158/126 61/106/94 136/105/93
f 21/159/127 62/160/128 140/11/11
f 21/159/127 63/161/47 137/162/46
f 57/163/122 138/164/124 64/165/129
f 64/165/129 141/166/130 62/160/128
f 65/167/131 141/168/130 64/169/129
f 64/169/129 138/156/124 60/157/125
f 22/170/132 60/157/125 136/105/93
f 22/170/132 66/130/109 139/129/86
f 23/171/133 67/172/134 143/13/13
f 23/171/133 68/12/12 140/11/11
f 62/160/128 141/166/130 69/173/135
f 69/173/135 144/174/136 67/172/134
f 70/175/137 144/174/136 69/173/135
f 69/173/135 141/166/130 65/176/131
f 24/177/138 65/176/131 139/98/86
f 24/177/138 71/97/85 142/96/84
f 25/178/139 72/179/140 146/180/2
f 25/178/139 73/181/42 143/13/13
f 67/172/134 144/174/136 74/182/141
f 74/182/141 147/183/142 72/179/140
f 75/184/143 147/185/142 74/186/141
f 74/186/141 144/187/136 70/188/137
f 26/189/144 70/188/137 142/122/84
f 26/189/144 76/121/104 145/87/75
f 27/190/145 77/191/146 149/192/4
f 27/190/145 78/193/3 146/194/2
f 72/195/140 147/185/142 79/196/147
f 79/196/147 150/197/148 77/191/146
f 80/198/149 150/197/148 79/196/147
f 79/196/147 147/185/142 75/184/143
f 28/199/150 75/184/143 145/87/75
f 28/199/150 81/86/74 148/85/73
f 29/200/151 82/201/152 152/20/20
f 29/200/151 83/202/39 149/203/4
f 77/204/146 150/205/148 84/206/153
f 84/206/153 153/207/154 82/201/152
f 85/208/155 153/209/154 84/210/153
f 84/210/153 150/197/148 80/198/149
f 30/211/156 80/198/149 148/85/73
f 30/211/156 86/114/99 151/113/58
f 31/212/157 52/139/114 130/22/22
f 31/212/157 87/21/21 152/20/20
f 82/201/152 153/207/154 88/213/158
f 88/213/158 132/140/115 52/139/114
f 55/214/119 132/140/115 88/213/158
f 88/213/158 153/207/154 85/215/155
f 32/216/159 85/215/155 151/70/58
f 32/216/159 89/69/57 131/68/38
f 90/217/23 130/218/22 51/219/113
f 51/219/113 134/72/60 91/71/59
f 33/220/160 91/71/59 123/76/64
f 33/220/160 42/131/110 122/134/25
f 1/6/6 102/1/1 78/3/3
f 1/6/6 78/3/3 104/5/5
f 47/8/8 1/6/6 128/7/7
f 102/1/1 1/6/6 127/9/9
f 2/15/15 98/10/10 68/12/12
f 2/15/15 68/12/12 100/14/14
f 45/17/17 2/15/15 126/16/16
f 98/10/10 2/15/15 125/18/18
f 3/24/24 95/19/19 87/21/21
f 3/24/24 87/21/21 90/23/23
f 49/26/26 3/24/24 122/25/25
f 95/19/19 3/24/24 129/27/27
f 4/31/31 93/28/28 34/30/30
f 106/33/33 4/31/31 154/32/32
f 4/31/31 106/33/33 94/35/35
f 4/31/31 94/35/35 56/37/37
f 4/31/31 56/37/37 93/28/28
f 5/42/40 104/5/5 83/39/39
f 5/42/40 83/39/39 95/41/19
f 48/44/41 5/42/40 129/43/27
f 104/5/5 5/42/40 128/7/7
f 6/48/43 100/45/14 73/47/42
f 6/48/43 73/47/42 102/1/1
f 46/49/44 6/48/43 127/9/9
f 100/45/14 6/48/43 126/50/16
f 7/56/48 96/51/45 63/53/47
f 7/56/48 63/53/47 98/55/10
f 44/58/49 7/56/48 125/57/18
f 96/51/45 7/56/48 124/59/50
f 8/63/54 92/60/51 41/62/53
f 113/65/56 8/63/54 161/64/55
f 8/63/54 113/65/56 93/67/28
f 8/63/54 93/67/28 89/69/57
f 8/63/54 89/69/57 92/60/51
f 9/74/62 91/71/59 58/73/61
f 9/74/62 58/73/61 96/51/45
f 43/75/63 9/74/62 124/59/50
f 91/71/59 9/74/62 123/76/64
f 10/80/68 103/77/65 39/79/67
f 111/82/70 10/80/68 159/81/69
f 10/80/68 111/82/70 105/84/72
f 10/80/68 105/84/72 81/86/74
f 10/80/68 81/86/74 103/77/65
f 11/91/79 99/88/76 37/90/78
f 109/93/81 11/91/79 157/92/80
f 11/91/79 109/93/81 101/95/83
f 11/91/79 101/95/83 71/97/85
f 11/91/79 71/97/85 99/88/76
f 12/100/88 94/35/35 35/99/87
f 107/102/90 12/100/88 155/101/89
f 12/100/88 107/102/90 97/104/92
f 12/100/88 97/104/92 61/106/94
f 12/100/88 61/106/94 94/35/35
f 13/108/96 105/84/72 40/107/95
f 112/110/98 13/108/96 160/109/97
f 13/108/96 112/110/98 92/112/51
f 13/108/96 92/112/51 86/114/99
f 13/108/96 86/114/99 105/84/72
f 14/118/101 101/115/83 38/117/100
f 110/120/103 14/118/101 158/119/102
f 14/118/101 110/120/103 103/77/65
f 14/118/101 103/77/65 76/121/104
f 14/118/101 76/121/104 101/115/83
f 15/124/106 97/104/92 36/123/105
f 108/126/108 15/124/106 156/125/107
f 15/124/106 108/126/108 99/128/76
f 15/124/106 99/128/76 66/130/109
f 15/124/106 66/130/109 97/104/92
f 16/221/161 42/131/110 43/75/63
f 16/221/161 43/75/63 44/58/49
f 16/221/161 44/58/49 45/132/17
f 16/221/161 45/132/17 46/49/44
f 16/221/161 46/49/44 47/8/8
f 16/221/161 47/8/8 48/44/41
f 16/221/161 48/44/41 49/133/26
f 16/221/161 49/133/26 42/131/110
f 51/138/113 17/135/111 134/137/60
f 52/139/114 17/135/111 130/22/22
f 17/135/111 52/139/114 53/141/116
f 17/135/111 53/141/116 50/136/112
f 18/148/120 54/143/118 53/145/116
f 18/148/120 53/145/116 55/147/119
f 56/37/37 18/148/120 131/38/38
f 54/143/118 18/148/120 133/36/36
f 58/152/61 19/149/121 137/151/46
f 50/154/112 19/149/121 134/153/60
f 19/149/121 50/154/112 59/155/123
f 19/149/121 59/155/123 57/150/122
f 20/158/126 60/157/125 59/155/123
f 20/158/126 59/155/123 54/143/118
f 61/106/94 20/158/126 133/36/36
f 60/157/125 20/158/126 136/105/93
f 63/161/47 21/159/127 140/11/11
f 57/163/122 21/159/127 137/162/46
f 21/159/127 57/163/122 64/165/129
f 21/159/127 64/165/129 62/160/128
f 22/170/132 65/167/131 64/169/129
f 22/170/132 64/169/129 60/157/125
f 66/130/109 22/170/132 136/105/93
f 65/167/131 22/170/132 139/129/86
f 68/12/12 23/171/133 143/13/13
f 62/160/128 23/171/133 140/11/11
f 23/171/133 62/160/128 69/173/135
f 23/171/133 69/173/135 67/172/134
f 24/177/138 70/175/137 69/173/135
f 24/177/138 69/173/135 65/176/131
f 71/97/85 24/177/138 139/98/86
f 70/175/137 24/177/138 142/96/84
f 73/181/42 25/178/139 146/180/2
f 67/172/134 25/178/139 143/13/13
f 25/178/139 67/172/134 74/182/141
f 25/178/139 74/182/141 72/179/140
f 26/189/144 75/184/143 74/186/141
f 26/189/144 74/186/141 70/188/137
f 76/121/104 26/189/144 142/122/84
f 75/184/143 26/189/144 145/87/75
f 78/193/3 27/190/145 149/192/4
f 72/195/140 27/190/145 146/194/2
f 27/190/145 72/195/140 79/196/147
f 27/190/145 79/196/147 77/191/146
f 28/199/150 80/198/149 79/196/147
f 28/199/150 79/196/147 75/184/143
f 81/86/74 28/199/150 145/87/75
f 80/198/149 28/199/150 148/85/73
f 83/202/39 29/200/151 152/20/20
f 77/204/146 29/200/151 149/203/4
f 29/200/151 77/204/146 84/206/153
f 29/200/151 84/206/153 82/201/152
f 30/211/156 85/208/155 84/210/153
f 30/211/156 84/210/153 80/198/149
f 86/114/99 30/211/156 148/85/73
f 85/208/155 30/211/156 151/113/58
f 87/21/21 31/212/157 130/22/22
f 82/201/152 31/212/157 152/20/20
f 31/212/157 82/201/152 88/213/158
f 31/212/157 88/213/158 52/139/114
f 32/216/159 55/214/119 88/213/158
f 32/216/159 88/213/158 85/215/155
f 89/69/57 32/216/159 151/70/58
f 55/214/119 32/216/159 131/68/38
f 33/220/160 90/217/23 51/219/113
f 33/220/160 51/219/113 91/71/59
f 42/131/110 33/220/160 123/76/64
f 90/217/23 33/220/160 122/134/25
